<?xml version="1.0" standalone="no"?>
<!DOCTYPE svg PUBLIC "-//W3C//DTD SVG 20010904//EN"
 "http://www.w3.org/TR/2001/REC-SVG-20010904/DTD/svg10.dtd">
<svg version="1.0" xmlns="http://www.w3.org/2000/svg"
 width="2000.000000pt" height="2000.000000pt" viewBox="0 0 2000.000000 2000.000000"
 preserveAspectRatio="xMidYMid meet">

<g transform="translate(0.000000,2000.000000) scale(0.100000,-0.100000)"
fill="#000000" stroke="none">
<path d="M10989 13017 c-52 -35 -89 -116 -89 -196 0 -225 222 -322 328 -143
23 41 27 58 27 127 0 86 -14 125 -64 178 -57 62 -140 76 -202 34z"/>
<path d="M9460 12873 c-78 -31 -132 -163 -110 -269 41 -196 236 -244 326 -82
58 105 29 255 -62 324 -35 27 -118 42 -154 27z"/>
<path d="M10345 12609 c-135 -18 -303 -72 -347 -110 l-23 -20 50 4 c28 3 115
17 195 32 108 19 196 28 342 33 182 6 221 12 205 28 -28 29 -299 50 -422 33z"/>
<path d="M6545 12346 c-80 -23 -106 -35 -172 -77 -84 -55 -88 -75 -9 -39 99
45 180 62 276 58 156 -6 244 -68 373 -263 221 -335 364 -790 477 -1520 38
-243 54 -184 25 93 -57 540 -146 905 -299 1227 -143 300 -256 442 -402 506
-62 28 -198 35 -269 15z"/>
<path d="M10515 12340 c-55 -26 -133 -34 -196 -21 -28 6 -54 10 -56 7 -10 -10
61 -48 109 -58 67 -13 125 1 173 43 57 50 43 63 -30 29z"/>
<path d="M12866 10841 c-32 -7 -48 -31 -21 -31 33 0 105 23 99 31 -6 10 -34
10 -78 0z"/>
<path d="M8528 10133 c6 -2 18 -2 25 0 6 3 1 5 -13 5 -14 0 -19 -2 -12 -5z"/>
<path d="M8603 10125 c4 -5 13 -10 20 -11 7 -1 68 -13 137 -27 69 -14 168 -33
220 -42 237 -41 420 -100 515 -165 186 -128 251 -340 215 -699 -23 -224 -88
-395 -191 -505 -69 -74 -120 -107 -204 -131 -89 -26 -191 -17 -569 49 -95 17
-355 69 -825 165 -162 33 -297 59 -299 56 -22 -22 1051 -265 1393 -315 169
-24 243 -25 315 -4 30 8 65 16 77 17 l21 2 6 -590 c6 -561 17 -867 35 -931 8
-32 35 -44 44 -19 17 42 18 290 3 665 -8 228 -18 492 -21 585 -4 94 -11 205
-17 249 l-11 78 47 40 c25 22 46 45 46 51 0 7 14 32 31 57 93 138 144 297 161
506 34 426 -89 674 -387 778 -99 34 -312 75 -650 126 -38 5 -81 13 -95 16 -14
4 -21 3 -17 -1z"/>
<path d="M9218 9860 c-45 -14 -135 -79 -189 -138 -67 -74 -133 -209 -155 -321
-23 -115 -15 -325 16 -431 64 -221 203 -359 381 -376 64 -6 85 0 71 22 -4 6
-37 21 -73 33 -219 72 -338 276 -339 577 0 247 105 480 257 570 39 24 63 32
136 48 15 4 25 11 22 16 -7 12 -89 12 -127 0z"/>
<path d="M12652 9588 c-21 -21 -13 -37 30 -68 75 -54 228 -81 258 -45 18 22 8
28 -65 36 -63 8 -110 26 -178 68 -26 16 -36 18 -45 9z"/>
</g>
</svg>
